HIERARCHY
ROOT Hips
{
 OFFSET 0.000000 0.000000 0.000000
 CHANNELS 6 Xposition Yposition Zposition Yrotation Xrotation Zrotation
 JOINT Chest
 {
  OFFSET 0.000000 9.588913 -0.003946
  CHANNELS 3 Yrotation Xrotation Zrotation
  JOINT Chest2
  {
   OFFSET 0.000000 9.541882 0.008053
   CHANNELS 3 Yrotation Xrotation Zrotation
   JOINT Chest3
   {
    OFFSET 0.000000 9.501360 0.000000
    CHANNELS 3 Yrotation Xrotation Zrotation
    JOINT Chest4
    {
     OFFSET 0.000000 9.491660 0.000000
     CHANNELS 3 Yrotation Xrotation Zrotation
     JOINT Neck
     {
      OFFSET 0.000000 14.331917 0.000000
      CHANNELS 3 Yrotation Xrotation Zrotation
      JOINT Head
      {
       OFFSET 0.000000 8.884799 0.017034
       CHANNELS 3 Yrotation Xrotation Zrotation
       End Site
       {
        OFFSET 0.000000 16.896195 0.008993
       }
      }
     }
     JOINT RightCollar
     {
      OFFSET -2.923010 9.499495 0.000000
      CHANNELS 3 Yrotation Xrotation Zrotation
      JOINT RightShoulder
      {
       OFFSET -13.795216 0.000000 0.000000
       CHANNELS 3 Yrotation Xrotation Zrotation
       JOINT RightElbow
       {
        OFFSET -30.272209 0.000000 0.000000
        CHANNELS 3 Yrotation Xrotation Zrotation
        JOINT RightWrist
        {
         OFFSET -24.478199 0.000000 0.000000
         CHANNELS 3 Yrotation Xrotation Zrotation
         End Site
         {
          OFFSET -18.090752 0.000000 0.000000
         }
        }
       }
      }
     }
     JOINT LeftCollar
     {
      OFFSET 2.923010 9.499495 0.000000
      CHANNELS 3 Yrotation Xrotation Zrotation
      JOINT LeftShoulder
      {
       OFFSET 13.795216 0.000000 0.000000
       CHANNELS 3 Yrotation Xrotation Zrotation
       JOINT LeftElbow
       {
        OFFSET 30.272209 0.000000 0.000000
        CHANNELS 3 Yrotation Xrotation Zrotation
        JOINT LeftWrist
        {
         OFFSET 24.478199 0.000000 0.000000
         CHANNELS 3 Yrotation Xrotation Zrotation
         End Site
         {
          OFFSET 18.090752 0.000000 0.000000
         }
        }
       }
      }
     }
    }
   }
  }
 }
 JOINT RightHip
 {
  OFFSET -7.826875 0.019532 0.001973
  CHANNELS 3 Yrotation Xrotation Zrotation
  JOINT RightKnee
  {
   OFFSET 0.000000 -40.546152 -0.001885
   CHANNELS 3 Yrotation Xrotation Zrotation
   JOINT RightAnkle
   {
    OFFSET 0.000000 -39.417092 -0.003189
    CHANNELS 3 Yrotation Xrotation Zrotation
    JOINT RightToe
    {
     OFFSET 0.000000 -7.579396 17.243563
     CHANNELS 3 Yrotation Xrotation Zrotation
     End Site
     {
      OFFSET 0.000000 -1.500329 6.694466
     }
    }
   }
  }
 }
 JOINT LeftHip
 {
  OFFSET 7.826875 0.019532 0.001973
  CHANNELS 3 Yrotation Xrotation Zrotation
  JOINT LeftKnee
  {
   OFFSET 0.000000 -40.546152 -0.001885
   CHANNELS 3 Yrotation Xrotation Zrotation
   JOINT LeftAnkle
   {
    OFFSET 0.000000 -39.417092 -0.003189
    CHANNELS 3 Yrotation Xrotation Zrotation
    JOINT LeftToe
    {
     OFFSET 0.000000 -7.579396 17.243563
     CHANNELS 3 Yrotation Xrotation Zrotation
     End Site
     {
      OFFSET 0.000000 -1.500329 6.694466
     }
    }
   }
  }
 }
}
MOTION
Frames: 13
Frame Time: 0.008333
61.726038 85.671653 -24.541029 87.624029 7.213575 -2.599454 -7.358677 16.311697 0.487036 -4.542986 9.648367 0.460401 -5.686855 12.063774 0.455340 -4.542986 9.648367 0.460399 19.291384 13.819808 -17.813692 29.642397 -7.277331 -28.095015 9.176819 -3.709573 -12.995371 -43.869617 -11.458992 70.314863 117.631567 1.116134 -7.709905 18.847980 -1.769173 -40.177725 0.401130 -7.123040 -6.551158 -8.488669 -37.981364 -62.982523 -104.544059 32.356040 -0.672757 -11.688673 6.754761 22.660889 -11.151801 -28.294233 4.112666 -12.766445 39.727660 -7.470049 5.253250 -15.907103 6.204673 -0.196750 2.210516 -0.343663 -9.467738 -29.356018 3.116861 -6.183689 31.972260 -3.883462 1.176696 -8.695404 2.887418 0.086340 -0.498272 -0.158344
61.885145 85.703776 -24.540294 87.527651 7.283616 -2.668925 -7.278112 16.259748 0.510783 -4.515512 9.635516 0.466311 -5.652191 12.047781 0.463655 -4.515512 9.635516 0.466309 19.285456 13.847629 -17.781044 29.616431 -7.252376 -28.041566 9.238409 -3.723391 -12.997860 -43.879543 -11.554568 70.229657 118.310747 2.789922 -7.567212 18.612043 -1.325283 -39.953552 0.405922 -7.152706 -6.550183 -8.394969 -38.044829 -63.142426 -104.280903 32.367739 -0.478353 -11.713018 6.733050 22.679449 -11.608736 -27.997439 4.523238 -12.888253 38.870443 -7.545160 5.016227 -15.540651 5.756675 -0.221697 1.856943 0.024422 -9.436554 -29.348820 3.153499 -6.212645 32.079583 -3.867164 1.221959 -8.855559 2.928530 0.087880 -0.470466 -0.146645
62.054227 85.728976 -24.536076 87.523500 7.268767 -2.712489 -7.285784 16.295715 0.519552 -4.489215 9.621028 0.469378 -5.619077 12.029706 0.468392 -4.489215 9.621029 0.469377 19.279351 13.866221 -17.749242 29.591911 -7.238926 -27.990636 9.300817 -3.746848 -12.999553 -43.905462 -11.648951 70.118804 119.001357 4.445698 -7.459288 18.407214 -0.913438 -39.765651 0.408770 -7.178672 -6.551748 -8.303148 -38.113040 -63.284827 -104.037795 32.351621 -0.294620 -11.734385 6.704805 22.690936 -12.060355 -27.677249 4.833003 -12.958914 38.261225 -7.559899 4.673897 -15.169844 5.228273 -0.200247 1.449396 0.390710 -9.467420 -29.261122 3.159515 -6.226271 32.192789 -3.849108 1.251697 -9.016488 2.965357 0.083618 -0.443400 -0.131804
62.234404 85.747683 -24.531752 87.627446 7.164380 -2.712216 -7.402291 16.422528 0.493172 -4.463911 9.606873 0.469941 -5.587278 12.012015 0.469954 -4.463911 9.606873 0.469940 19.274108 13.874569 -17.719692 29.571056 -7.237609 -27.944798 9.359958 -3.781961 -13.000183 -43.944889 -11.739124 69.989699 119.709155 6.064352 -7.382608 18.219075 -0.535225 -39.616790 0.409040 -7.204721 -6.555250 -8.209340 -38.184163 -63.405692 -103.817015 32.300920 -0.122714 -11.752824 6.663106 22.694308 -12.500988 -27.323081 5.020232 -12.970261 37.860741 -7.548029 4.286393 -14.829071 4.693300 -0.115805 1.027104 0.721952 -9.562309 -29.089916 3.110226 -6.235516 32.310829 -3.827152 1.268318 -9.177984 2.990955 0.079701 -0.416640 -0.110509
62.408408 85.762968 -24.529532 87.712141 7.070433 -2.681281 -7.506948 16.535107 0.441305 -4.440351 9.593980 0.468622 -5.557722 11.995881 0.469093 -4.440351 9.593981 0.468621 19.270982 13.874109 -17.697313 29.557478 -7.244964 -27.911411 9.413861 -3.827159 -13.002820 -43.995513 -11.831681 69.848917 120.444827 7.610346 -7.322070 18.035258 -0.190845 -39.492279 0.412408 -7.233629 -6.565269 -8.117582 -38.253596 -63.498517 -103.613343 32.213770 0.042590 -11.769580 6.608708 22.691470 -12.828859 -27.011030 5.116871 -12.944422 37.563774 -7.567043 3.973934 -14.545965 4.295590 -0.055384 0.652133 0.925439 -9.617897 -28.941291 3.024445 -6.250317 32.433923 -3.806259 1.284562 -9.332176 3.003922 0.078097 -0.397386 -0.084284
62.572425 85.776445 -24.526835 87.759416 7.010533 -2.644635 -7.578978 16.611656 0.388615 -4.418181 9.581945 0.465523 -5.529958 11.980796 0.465949 -4.418181 9.581945 0.465523 19.269147 13.867678 -17.683893 29.550281 -7.257154 -27.892295 9.465763 -3.880388 -13.005805 -44.068732 -11.933176 69.699688 121.206771 9.040086 -7.256258 17.861529 0.115672 -39.363804 0.418457 -7.261346 -6.581128 -8.025463 -38.320659 -63.563253 -103.420500 32.090936 0.202306 -11.794337 6.546146 22.686767 -13.093124 -26.724789 5.163001 -12.936392 37.289778 -7.623521 3.836216 -14.343688 4.029296 -0.017683 0.369483 1.003373 -9.646105 -28.836582 2.939066 -6.269540 32.564213 -3.790726 1.313705 -9.486521 3.009077 0.073490 -0.379192 -0.059893
62.729365 85.788964 -24.519073 87.795568 6.969573 -2.632148 -7.634352 16.672089 0.359862 -4.397028 9.570961 0.461548 -5.503498 11.967016 0.461663 -4.397028 9.570962 0.461547 19.267681 13.857252 -17.679274 29.547771 -7.271976 -27.886562 9.522072 -3.942920 -13.007447 -44.178628 -12.043739 69.544103 121.991017 10.305243 -7.167283 17.702193 0.382117 -39.203836 0.424999 -7.284874 -6.595573 -7.927022 -38.383033 -63.608130 -103.236490 31.935756 0.358313 -11.836132 6.475872 22.684652 -13.350523 -26.421535 5.182529 -12.929227 37.020360 -7.644797 3.869179 -14.249041 3.803367 0.029353 0.198870 1.014969 -9.697609 -28.754507 2.894357 -6.286750 32.702210 -3.782085 1.360668 -9.650171 3.009816 0.061371 -0.352718 -0.041674
62.879581 85.801394 -24.507157 87.810630 6.946892 -2.644850 -7.660044 16.718152 0.348408 -4.377700 9.561384 0.458717 -5.479301 11.955008 0.458747 -4.377700 9.561384 0.458717 19.266907 13.844021 -17.683466 29.550252 -7.287834 -27.894185 9.584485 -4.015203 -13.010548 -44.329339 -12.163308 69.386446 122.795219 11.371064 -7.043946 17.549509 0.601504 -38.994727 0.432891 -7.305318 -6.604958 -7.818058 -38.440777 -63.644258 -103.062041 31.755731 0.510203 -11.891560 6.401560 22.685991 -13.503009 -26.120540 5.147445 -12.845644 36.778779 -7.561605 3.944148 -14.218752 3.633206 0.058841 0.086065 0.970585 -9.762521 -28.693618 2.890136 -6.296555 32.843865 -3.778324 1.411642 -9.784637 3.003102 0.052337 -0.352652 -0.023780
63.023350 85.814324 -24.496787 87.818975 6.943831 -2.650309 -7.678316 16.748050 0.322954 -4.360135 9.552041 0.457999 -5.457259 11.943318 0.458429 -4.360135 9.552041 0.457998 19.266624 13.830167 -17.694683 29.556395 -7.302490 -27.912207 9.646717 -4.092396 -13.013456 -44.525020 -12.297265 69.229246 123.607319 12.218982 -6.884960 17.406009 0.758018 -38.715606 0.440429 -7.322673 -6.610259 -7.694954 -38.497229 -63.682652 -102.893539 31.566414 0.655690 -11.956140 6.332352 22.694685 -13.443677 -25.874333 5.008294 -12.649854 36.595717 -7.363668 3.914137 -14.236872 3.568852 0.048306 0.014492 0.873673 -9.831236 -28.655831 2.885268 -6.295700 32.983041 -3.772174 1.462817 -9.908690 2.990201 0.043566 -0.357617 -0.006574
63.159780 85.828605 -24.488980 87.797964 6.965743 -2.646591 -7.671624 16.758258 0.282165 -4.344002 9.541811 0.458662 -5.436976 11.930537 0.459815 -4.344002 9.541811 0.458661 19.266932 13.816507 -17.711046 29.565464 -7.315381 -27.937848 9.707318 -4.169281 -13.012468 -44.765013 -12.451631 69.073018 124.425009 12.840159 -6.683790 17.270544 0.852192 -38.364251 0.447820 -7.338112 -6.613885 -7.560196 -38.553317 -63.726356 -102.722713 31.392806 0.804224 -12.030017 6.274553 22.719766 -13.128577 -25.714298 4.778557 -12.377717 36.472813 -7.079169 3.737862 -14.231609 3.584410 0.014585 -0.079681 0.757861 -9.870003 -28.641824 2.867834 -6.286821 33.106907 -3.755610 1.509999 -9.992129 2.970719 0.039682 -0.391143 0.010004
63.282406 85.845852 -24.482355 87.737398 7.051539 -2.643943 -7.631182 16.713000 0.244344 -4.329892 9.531069 0.459899 -5.419215 11.917123 0.461872 -4.329892 9.531069 0.459898 19.268060 13.801883 -17.732288 29.577859 -7.327977 -27.970992 9.767034 -4.245957 -13.008802 -45.023754 -12.622081 68.922617 125.241501 13.244895 -6.445233 17.151771 0.905643 -37.967183 0.457744 -7.354457 -6.619936 -7.418802 -38.609515 -63.771334 -102.544081 31.260920 0.968403 -12.107444 6.230002 22.770897 -12.630964 -25.660593 4.514022 -12.098022 36.375148 -6.749207 3.475348 -14.255113 3.622819 -0.019868 -0.134103 0.650853 -9.873956 -28.683719 2.852776 -6.275155 33.206719 -3.725108 1.562288 -10.091319 2.946161 0.030370 -0.394113 0.020975
63.398213 85.866094 -24.473388 87.661016 7.160252 -2.656963 -7.575169 16.656988 0.223276 -4.316738 9.520043 0.462208 -5.402623 11.903367 0.465252 -4.316738 9.520043 0.462207 19.268744 13.786233 -17.756478 29.590958 -7.341208 -28.008367 9.819753 -4.324703 -13.003171 -45.273222 -12.803811 68.783145 126.030251 13.463968 -6.187660 17.076400 0.939309 -37.568054 0.466587 -7.372361 -6.628671 -7.273858 -38.665640 -63.815035 -102.353841 31.185904 1.155092 -12.183650 6.202292 22.847828 -12.091828 -25.630904 4.266250 -11.869427 36.255505 -6.418962 3.217647 -14.286102 3.643742 -0.036225 -0.164183 0.561757 -9.872283 -28.737506 2.852969 -6.266494 33.284829 -3.683324 1.623357 -10.185103 2.915099 0.018935 -0.390378 0.027128
63.511253 85.889629 -24.459159 87.589929 7.268529 -2.696990 -7.522493 16.614904 0.225035 -4.302007 9.508380 0.465778 -5.384019 11.888828 0.470260 -4.302007 9.508380 0.465777 19.269989 13.770941 -17.778327 29.603880 -7.354449 -28.042558 9.865453 -4.404510 -12.993050 -45.515118 -12.997916 68.653716 126.773871 13.528187 -5.916561 17.050746 0.968151 -37.214810 0.472889 -7.391241 -6.634289 -7.129478 -38.718957 -63.855326 -102.150475 31.165138 1.365917 -12.260888 6.187794 22.933203 -11.634516 -25.568231 4.084496 -11.726642 36.079450 -6.125564 3.037308 -14.329900 3.620577 -0.026955 -0.161834 0.493789 -9.897225 -28.778753 2.884407 -6.266395 33.346021 -3.636988 1.701293 -10.276876 2.879780 0.004640 -0.380476 0.026393
